<?xml version="1.0" encoding="utf-8"?>
<!-- Generator: Adobe Illustrator 21.0.0, SVG Export Plug-In . SVG Version: 6.00 Build 0)  -->
<svg version="1.1" id="Capa_1" xmlns="http://www.w3.org/2000/svg" xmlns:xlink="http://www.w3.org/1999/xlink" x="0px" y="0px"
	 viewBox="0 0 124.2 99.8" style="enable-background:new 0 0 124.2 99.8;" xml:space="preserve">
<style type="text/css">
	.st0{fill:#696969;}
</style>
<g>
	<g>
		<path class="st0" d="M73.7,0.3c0.2,0.6-0.4,1-0.1,1.4c-0.3,0.1-0.2-0.1-0.5,0.2c-0.1-0.5,0-1.3,0.3-1.7l0.1,0.2L73.7,0.3z"/>
	</g>
	<g>
		<path class="st0" d="M64.6,2.7c0.8,0.1,0.5,1.6,0.1,2C64.2,4.1,64.7,3.4,64.6,2.7z"/>
	</g>
	<g>
		<path class="st0" d="M68.1,4.6c0.3-0.1,0.2,0.2,0.4,0.2c0.1,0.5-0.1,0.7,0,1.1C67.7,6,67.8,4.9,68.1,4.6z"/>
	</g>
	<g>
		<path class="st0" d="M72.8,5.6c0.2,0,0.2,0.1,0.3,0.1c0.1,0.3-0.4,0.1-0.2,0.5C72.8,6.5,72.7,5.6,72.8,5.6z"/>
	</g>
	<g>
		<path class="st0" d="M68.1,6.1c0.3,0.1,0.5,1.4-0.1,1.7C67.8,7.4,67.7,6.3,68.1,6.1z"/>
	</g>
	<g>
		<path class="st0" d="M67.9,9.7c0.3-0.1,0.3,0.1,0.5,0.1c0.3,0.7,0.3,1.6,0.3,2.6c0,0.8,0.2,1.9,0.1,2.5c-0.1,0.5-0.6,0.9-0.2,1.4
			c-0.3,0-0.4,0.3-0.8,0.2C67.8,14.5,67.6,11.8,67.9,9.7z"/>
	</g>
	<g>
		<path class="st0" d="M29.5,17.2c-0.6,0.7-0.8-0.6-1.5-0.5c0.1-0.6-0.7-0.4-0.6-0.9C28.4,14.8,29,16.7,29.5,17.2z"/>
	</g>
	<g>
		<path class="st0" d="M67.9,17.7c0.4-0.1,0.1,0.4,0.2,0.6C67.7,18.4,67.9,17.9,67.9,17.7z"/>
	</g>
	<g>
		<path class="st0" d="M9.5,21.1c0.1,0.1,0.2,0.1,0.2,0C10.1,21.2,9.3,21.6,9.5,21.1z"/>
	</g>
	<g>
		<path class="st0" d="M49.9,22.6c0.5,0.1,0.4,0.8,0.9,0.8c-0.2,0.3,0.2,0.5,0.1,1c-0.2,0-0.3,0-0.3,0.1c-0.3-0.6-0.9-1-0.9-1.8
			L49.9,22.6L49.9,22.6z"/>
	</g>
	<g>
		<path class="st0" d="M111.4,22.4c0.1-0.6,0.8-0.7,1.2-1c0.3,0,0.3,0.3,0.3,0.5c-0.5,0.1-0.5,0.7-1.2,0.6l-0.2-0.1H111.4z"/>
	</g>
	<g>
		<path class="st0" d="M30.9,22.6c0,0.3,0.2,0.2,0.1,0.5c-0.4,0-0.7,0-0.6-0.4C30.7,22.8,30.6,22.5,30.9,22.6z"/>
	</g>
	<g>
		<path class="st0" d="M32.5,24.1c0.5,0.1,0.7,0.4,0.9,0.7h-0.2V25c-0.6-0.1-0.7-0.1-0.8-0.6l0.2-0.1L32.5,24.1z"/>
	</g>
	<g>
		<path class="st0" d="M33.4,25v-0.2c0.3,0,0.3,0.3,0.3,0.5c-0.3,0-0.6,0-0.5-0.3H33.4z"/>
	</g>
	<g>
		<path class="st0" d="M42.1,25.2c0.4,0.1,0.1,0.2,0,0.4c-0.1-0.1-0.1-0.2-0.3-0.2C41.8,25.3,42.1,25.4,42.1,25.2z"/>
	</g>
	<g>
		<path class="st0" d="M27.4,31.1c0.3-0.3,0.6,0.1,1,0c0,0.5,0.4,0.2,0.3,0.6c1.3,0.1,1.7,1.1,2.8,1.3c-0.3,0.3,0.3,0.4,0.3,0.7
			c-1.8,0.1-3-1.2-4.4-1.9C27.3,31.6,27.7,31.3,27.4,31.1z"/>
	</g>
	<g>
		<path class="st0" d="M17.3,41.3c-0.7,0-1.2,0-1.3-0.8c0.6-0.2,1.1,0.2,1.4,0.5l-0.2,0.1L17.3,41.3z"/>
	</g>
	<g>
		<path class="st0" d="M17.5,41.2L17.4,41c0.6-0.2,1.2,0.1,1.9,0.3c1,0.2,2,0.4,2.8,0.6c0.5,0.2,1.7,0.5,1.8,1.2
			c-0.7,0.1-1.3-0.3-1.9-0.4c-0.5-0.1-1,0.1-1.5-0.1c-0.4-0.2-0.8-0.6-1.3-0.7c-0.7-0.2-1.4-0.1-2-0.5L17.5,41.2z"/>
	</g>
	<g>
		<path class="st0" d="M23.8,44.3c-0.6,0-1.2,0-1.6-0.2C22.4,43.4,23.9,43.7,23.8,44.3z"/>
	</g>
	<g>
		<path class="st0" d="M30.1,48.3c0.4,0,0.3,0.5,0.6,0.5c0.6-0.2,1.8-0.2,1.9,0.7c-0.5,0.3-1.3,0.4-1.9-0.1c-0.5,0.3-1.6,0.4-2-0.1
			c-0.1-0.5,0.6-0.2,0.7-0.4C29.5,48.8,29.6,48.2,30.1,48.3z"/>
	</g>
	<g>
		<path class="st0" d="M24.5,49.5c0.2-0.1,0.4-0.3,0.3-0.7c0.2,0,0.3-0.1,0.4-0.2c0.9,0.4,3-0.2,3.4,0.9c-1.2,0.2-2.6-0.6-3.5,0.3
			c-0.2-0.1-0.5,0.1-0.5-0.1l0.1-0.2H24.5z"/>
	</g>
	<g>
		<path class="st0" d="M20.9,49.5c-0.4,0.1-0.6,0.1-0.8-0.2c0.1-0.4,0.8-0.2,0.9,0l-0.2,0.1L20.9,49.5z"/>
	</g>
	<g>
		<path class="st0" d="M105.4,51.1c0.2-0.5,0.5-0.9,0.7-1.3c1.1-0.4,1.9,0,3,0.1l-0.1,0.2l0.2-0.1c-0.1,0.5-0.4,0.8-0.6,1.3
			c-0.8-0.3-2.3,0.3-3.2,0V51.1L105.4,51.1z"/>
	</g>
	<g>
		<path class="st0" d="M105,51.2l0.1,0.2c-0.4,0.3-0.8,0.2-1.4,0.1c0-0.3,0.2-0.2,0.1-0.5c0.3-0.2,1.2-0.2,1.4,0.1L105,51.2z"/>
	</g>
	<g>
		<path class="st0" d="M120.5,50.3c-0.6,0.3-1.9,0.4-2.8,0.4c-0.5,0-1-0.1-1.3-0.2c-0.8,0.3-2.6,0.4-3.4,0c-0.6,0.2-1.1,0.1-1.3-0.5
			c1.9-0.7,3.9,0,5.9-0.1C118.5,49.9,119.9,49.8,120.5,50.3z"/>
	</g>
	<g>
		<path class="st0" d="M110.7,50c0.2,0.2,0.2-0.1,0.5,0c-0.1,0.1-0.1,0.2-0.1,0.3C110.9,50.3,110.7,50.3,110.7,50z"/>
	</g>
	<g>
		<path class="st0" d="M124.2,50.3c-0.3,1-2.5,0.3-3.4,0.2c0-0.1,0-0.2,0-0.3C121.9,50,123.8,50.1,124.2,50.3z"/>
	</g>
	<g>
		<path class="st0" d="M12.2,51.2c0,0.4-0.6,0.4-0.8,0.2C11.5,51.1,11.8,51.2,12.2,51.2z"/>
	</g>
	<g>
		<path class="st0" d="M15.4,51.4c0,0.4-1.1,0.3-1.1-0.1C14.7,51.3,15.4,50.9,15.4,51.4z"/>
	</g>
	<g>
		<path class="st0" d="M16.7,51.6c-0.2,0.3-0.7,0-0.6-0.3c0.2,0,0.4,0,0.6,0l-0.1,0.2L16.7,51.6z"/>
	</g>
	<g>
		<path class="st0" d="M13.2,51.4c0.1,0.3-0.2,0.2-0.4,0.2C12.9,51.4,13,51.4,13.2,51.4z"/>
	</g>
	<g>
		<path class="st0" d="M121.1,54.5c0,0.1-0.1,0.2-0.3,0.2C120.9,54.6,120.9,54.5,121.1,54.5z"/>
	</g>
	<g>
		<path class="st0" d="M106.4,56c0.1,0,0.2,0.1,0.2,0.3c-0.3,0.1-0.4,0.1-0.7,0C106,56.1,106.4,56.2,106.4,56z"/>
	</g>
	<g>
		<path class="st0" d="M113.2,56.8c0.2,0.1,0.2,0.3,0.2,0.5c-1,0.2-1.7-0.1-2.4-0.4C111.5,56.2,112.5,57.1,113.2,56.8z"/>
	</g>
	<g>
		<path class="st0" d="M107.4,59.1c0.2-0.3,0.8-0.1,0.9,0.1c0,0.3-0.2,0.4-0.3,0.5C107.6,59.7,107.6,59.3,107.4,59.1z"/>
	</g>
	<g>
		<path class="st0" d="M105.9,60.9c0.1,0,0.3,0,0.4,0c-0.1,0.3,0.2,0.2,0.3,0.3c-0.2,0.3-0.3,0.1-0.7,0.2
			C105.8,61.1,105.8,61.3,105.9,60.9z"/>
	</g>
	<g>
		<path class="st0" d="M112.2,62.1c-1.3,0.1-2.6-0.1-3.6-0.3c-0.5-0.1-1.2,0-1.3-0.5c1.8,0,3.5-0.2,4.9,0.5l-0.2,0.1L112.2,62.1z"/>
	</g>
	<g>
		<path class="st0" d="M112.9,62l-0.1-0.2c0.7,0.3,2.4-0.5,2.3,0.6c-1,0-1.6,0-2.4-0.3L112.9,62z"/>
	</g>
	<g>
		<path class="st0" d="M107,65.5c-1.7,0-3-0.7-4.2-1.2c0-0.1,0-0.3,0-0.4c0.5,0,1.2,0.1,1.7,0.2c0.3,0.1,0.5,0.4,0.8,0.5
			c0.7,0.2,1.5-0.1,1.8,0.5l-0.2,0.1L107,65.5z"/>
	</g>
	<g>
		<path class="st0" d="M107.7,65.5l-0.1-0.2c0.5,0,0.9,0.1,1.1,0.4c-0.1,0.4-1.1,0.1-1.2-0.1L107.7,65.5z"/>
	</g>
	<g>
		<path class="st0" d="M27.2,66.2c0,0.2,0,0.3,0.1,0.3c-0.1,0.2-0.3,0.2-0.5,0.2c-0.1-0.1-0.1-0.2-0.1-0.4
			C26.8,66.2,27,66.2,27.2,66.2z"/>
	</g>
	<g>
		<path class="st0" d="M93.3,66.3c1.2,0.6,2.5,0.5,2.8,1.8c1.1-0.2,1,0.9,2.1,0.7c0.2,0.1,0.1,0.6,0.4,0.6c-1.2,0.3-1.8-0.9-3-0.8
			c-0.4-1-1.6-1.1-2.4-1.7C93.2,66.7,93.2,66.4,93.3,66.3z"/>
	</g>
	<g>
		<path class="st0" d="M21.6,67.6C21.4,67.9,21.1,67.3,21.6,67.6L21.6,67.6z"/>
	</g>
	<g>
		<path class="st0" d="M100,70.4c-0.1,0-0.3,0-0.4,0c0-0.2,0-0.3-0.1-0.3c0.1-0.2,0.9-0.2,0.8,0.1l-0.2,0.1L100,70.4z"/>
	</g>
	<g>
		<path class="st0" d="M100.5,70.4L100.5,70.4c0.6-0.1,0.7,0.3,1.3,0.2c0.1,0.1,0.1,0.4,0.2,0.5l-0.2,0.1l0.1,0.2
			c-0.7-0.1-1.3-0.3-1.6-0.8L100.5,70.4z"/>
	</g>
	<g>
		<path class="st0" d="M102.4,71.4l-0.1-0.2c0.3-0.2,1,0,1.1,0.3c0,0.5-1,0.6-1.2-0.2L102.4,71.4z"/>
	</g>
	<g>
		<path class="st0" d="M41.7,73.4c0.2,0,0.2,0.1,0.2,0.2c-0.1,0-0.1,0-0.1,0.1C41.7,73.7,41.7,73.6,41.7,73.4z"/>
	</g>
	<g>
		<path class="st0" d="M41.3,74.3c0.7,0.7,0,1.9-0.9,2c-0.2-0.3-0.3-0.7-0.8-0.6c-0.1-0.9,0.7-1.2,1.5-1.5l0.1,0.2L41.3,74.3z"/>
	</g>
	<g>
		<path class="st0" d="M102.3,74.9c-0.4,0.1-0.6,0.1-0.6-0.3C102.1,74.5,102.3,74.5,102.3,74.9z"/>
	</g>
	<g>
		<path class="st0" d="M35.3,75.1c0.2-0.4,0.6-0.5,1-0.5c-0.1,0.5-0.4,0.8-0.9,0.8l0.1-0.2L35.3,75.1z"/>
	</g>
	<g>
		<path class="st0" d="M102.7,75.1c0.2-0.1,0.2,0.2,0.3,0.2C103,75.6,102.6,75.3,102.7,75.1z"/>
	</g>
	<g>
		<path class="st0" d="M40.2,76.4c-0.1,0-0.2-0.1-0.2-0.3C40.2,76.1,40.2,76.2,40.2,76.4z"/>
	</g>
	<g>
		<path class="st0" d="M76,84.6c0.1,0,0.2,0,0.3,0c0,0.3,0,0.5-0.3,0.4C76,84.8,76,84.7,76,84.6z"/>
	</g>
	<g>
		<path class="st0" d="M36.1,36.7c0.8,0.1,2.3,0.4,2.2,1.8c-0.1,0.1-0.2,0.1-0.3,0.1c0.4,0.8,1.5,1.5,2.4,1.5
			c-0.1-0.2-0.1-0.4-0.4-0.3c0.4-0.9-0.2-1.8,0.2-2.5c0.6,0,1.2-1,2.1-0.4c0.1,0,0-0.2-0.1-0.2c1.1-0.3,1-1.2,1.9-1.7
			c-0.2-0.5,0.2-0.8,0.2-1.1c0-0.7-0.7-0.9-0.8-1.6c-0.2-0.2-0.3-0.5-0.7-0.5c-0.1-1-0.9-1.9-0.9-2.5c0.6,0,0.9,0.4,1.2,0.7
			c0.7,0.2,1.3,0.5,2.1,0.6c0.1,0.3,0.3,0.5,0.3,0.8c0.2,0,0.2-0.2,0.2-0.3c0.2,0.3,0.7,0.5,0.7,0.9c0.2-0.3,0.3,0.1,0.6,0.1
			c0.5-0.1,0.8-0.6,1.4-0.7c0.5-0.7,0.9-2,0.6-2.8c0.5,0.1,0.2-0.5,0.3-0.6c0.1-0.2,0.7-0.1,0.3-0.4c0.5,0,0.9-0.1,1.3-0.2
			c0.1,0.1,0.1,0.3,0.2,0.3c0.5,0.1,0.4-0.4,0.7-0.4c-0.2-0.5-0.2-0.8-0.1-1.4c0.1,0.1,0.2,0.3,0.5,0.2c-0.1-1-0.5-2.2-0.3-3.4
			c0.3,0.1,0.5,0.3,0.8,0.3c0,0.2,0,0.4,0.1,0.5c0.9,0.6,1.8,1.2,2.3,2.2c0.3-0.2,0.8-0.1,1.1-0.2c0.4-0.2,0.4-0.5,0.7-0.6
			c0-1.1,0.7-1.5-0.1-2.1c0-0.9-0.1-1.3,0.1-2c0.2,0.2,0.7-0.1,1.2,0c0.5,0.5,0.3,1.3,0.8,1.4c-0.2,0.3,0,0.4,0,0.8
			c0.4,0.3,0.6,1.1,1.4,1.1c0.1,0,0.4-0.3,0.7-0.3c0.2-0.3,0.1-0.6,0.5-0.7c0.2,0,0-0.2,0.1-0.3c0.2-0.2,0.8,0.1,0.8-0.3
			c0.7,0,0.9,0.5,1.6,0.5c0.2,0.1,0.3,0.4,0.6,0.6c0.6,0.2,0.5-0.2,0.8,0.1c0.3-0.3,0.4-1.3,0.2-2.2c0.2-0.4,0.6-1,0.4-1.5
			c0.4-0.2,0.6-0.3,0.9,0c0,0.1-0.2,0.1-0.3,0.1c0.4,0.3,0.9,0.2,1.4,0.5c-0.2,0.4,0.6,0.6,0.2,0.9c0,0.2,0.1,0,0.3,0
			c0.1,0.7,0.2,1.8,0.2,2.2c0.7,0.3,2,0.4,2.6-0.3l0.2,0.1l-0.1-0.2c0.9-0.1,0.9-0.3,1.6-0.2c0.2,0.2-0.1,0.8,0.5,0.6
			c-0.1,0.5,0.4,0.4,0,0.6c0.5,0,1,0.5,1.9,0.3c0.3,0.1,0.4,0.3,0.6,0.5c0.4-0.4,0.6-1,1.3-1.2c0.2-0.5,0.8-1.1,1.7-1.5
			c-0.2-0.8,0.7-0.8,0.6-2c0.4-0.2,0.7-0.5,1.3-0.5c0.1,0.1,0.2,0.2,0.3,0.2c-0.1,0.8-0.4,1.2-0.5,2.2c-0.3,0-0.2,0.2-0.4,0
			c0,0.6,0,1.2-0.7,1.4c0.1,0.8-0.1,1.4-0.4,2.3c0.6,0.6,1.3,0.6,2.1,1.2c1.2-0.7,2.3-0.7,3.7-0.5c0.1,0.5,0.7,0.6,0.6,0.9
			c0,0.3-0.1,0.5-0.2,0.6c0.3,0.5,0.8,1.4,0.4,2c0,0.1,0.2,0.1,0.2,0c0,0.6,0.6,1.1,0.5,1.4c0.9,0.1,1.3,0.6,2.6,0.5
			c0,0.6,0.6,0.7,0.7,1.2c0.1,0.6-0.1,1.2,0.1,1.7c0.5,1,2,0,2.9,0.9c1.2-0.3,1.7-0.6,2.6-1.1c0.3-0.5,1.5-1,2-1.6
			c0.2,0,0.2,0.1,0.3,0.1c0.1-0.7,1.7-1.2,2.4-1.3c0.2-0.1,0.2-0.3,0.2-0.5c0.9,0,1.3-1.1,2.1-0.8c1.4-1.7,4.2-2,5.6-3.4
			c0.1,0.1,0.3,0.1,0.5,0.1c0.5-0.7,1.6-0.8,2.1-1.6c1.1-0.1,1.6-0.8,2.3-1.4c0.2,0,0.3,0,0.5,0c0.3,0,0.3-0.3,0.5-0.3
			c0.3,0,0.2,0.2,0.5,0.1c0.1,0.3-0.1,0.4-0.1,0.6c-0.7,0.4-1.7,0.6-2.2,1.3c-0.3,0.1-0.8,0.2-0.8,0.5c-1.1,0.3-2,0.9-2.7,1.6
			c-0.1,0-0.1-0.1-0.2-0.1c-0.3,0.5-1.2,0.4-1.4,1.2c-0.2,0-0.2-0.1-0.3-0.1c-0.3,0.3-0.5,0.6-1.1,0.6c-0.7,1-2.4,0.9-2.9,2
			c-0.7,0-0.9,0.8-1.5,0.6c-0.2,0-0.1,0.4-0.2,0.4c-0.7,0.1-1.2,0.4-1.5,0.9c-0.5-0.1-0.7,0.2-0.8,0.5c-0.6,0.2-1.1,0.3-1.6,0.5
			c-0.3,0.2-0.5,0.6-0.8,0.7c-0.1,0.1-0.3,0-0.4,0c-0.5,0.2-0.9,0.7-1.5,0.7c-0.8,0.5-1,1.3-1.9,1.9c-0.1,0.9,0.4,1.2,0.4,2
			c0.2,0.1,0.4,0.1,0.8,0c0,0.1,0,0.2,0,0.3c0.7,0,0.8,0.5,1.4,0.6c-0.3,0.6,0.2,1.4,0.2,2.2c0,0.7-0.2,1.5,0.5,1.8
			c0,0.7-0.1,1.6,0.1,2.1c-0.8,1.2,0.2,1.9-0.5,3c0.4,0.9-0.4,1.3,0.1,2.1c0.1,0.2-0.2,0.1-0.2,0.3c0.3,0,0.1,0.6,0.4,0.5
			c-0.1,0.1-0.1,0.4-0.3,0.4c0.1,0,1.1,0.1,0.7,0.5c0.4-0.3,0.6,0.2,1.1,0c-0.1,0.1-0.1,0.2-0.1,0.3c1,0.2,2.2-0.4,2.7,0.1
			c0.1,0,0.1-0.2,0.2-0.2c0.4,0,0.7,0.1,0.9,0.2c0.8-0.3,2.1-0.3,2.8,0.3c0.2,0.5-0.1,0.7,0.2,1c-0.6,0.3-1.1,0-1.8,0
			c-1.5,0-2.9,0.9-4.4,0.9c-0.3,0-0.5-0.2-0.7-0.2c-0.4,0-1,0.4-1.4,0.1c-0.2,0.2-0.5,0.3-0.7,0.5c-0.1,1.1,0.1,1.8-0.4,2.2
			c0,0.1,0.2,0.1,0.3,0.1c-0.4,0.2-0.3,0.6-0.7,0.9c0.1,0.3,0,0.8,0.2,1.1c0,0.2-0.3,0.2-0.4,0.3c0.3,0.4,0.2,1.1,0.9,1.3
			c-0.4,0.7-0.5,1.2-0.9,1.7c-0.7-0.1-0.9-0.3-1.7-0.2c-0.6,0.5-0.7,1.3-1.2,1.9c0.2,0.3,0.3,0.7,0.2,1.2c0.4,0.2,0.5,0.8,0.8,1.2
			c-0.2,0.3-0.4,0.5-0.4,0.8c-0.7,0.2-1.1,0.2-1.9,0.4c0.5,0.6,0.3,1.1,0.7,1.5l-0.2,0.1l0.1,0.2c-0.4-0.1-0.4,0.2-0.7,0.1
			c-0.5,0.8-1.1,0.4-2,0.3c-0.5-1-2.3-0.3-3.2-0.1c-0.7,0.7-0.8,0.8-1.6,1.4c-0.1,0.3-0.2,0.8-0.6,1c0.8,0.4,0.8,1.4,0.5,2.3
			c-2.2,0.4-2-1.5-3.5-1.9c-0.4,0.3-0.9,0.5-1.3,0.8v0.4c0,0-0.3,0.1-0.3,0.2c-0.1,0.1-0.2,0.4-0.5,0.5c-0.6,0.2-1.1,0.1-1.8,0.4
			c-1.3,1.6,0.1,4.1,0,6c-0.9,0-0.7-1.2-0.9-2c-0.1-0.2-0.3-0.3-0.3-0.4c-0.4-1.5-0.3-2.9-1.5-3.7c-0.2-0.2-0.9-0.3-1.4-0.1
			c-0.3,0.1-0.5,0.5-0.8,0.6c-0.2,0.1-0.4,0-0.5,0.1c-0.2,0.1-0.1,0.2-0.1,0.2c-0.2,0.2-0.4,0.2-0.6,0.3c-0.5,0.3-0.7,0.6-1.3,0.8
			c-0.3,0-0.3-0.2-0.5-0.2c-0.3-0.1-0.6,0.4-0.8,0.4c-0.1,0-0.2-0.2-0.2-0.2c-0.1,0-0.1,0.2-0.1,0.2c-0.4,0-1.2-0.1-1.1,0.1
			c-0.8,0.3-1.8,0.1-2.7,0.2c-0.3,0-0.4-0.3-0.6-0.4c-0.7,0.2-0.9-0.6-1.5-0.7c-0.1-0.2-0.2-0.5-0.3-0.6c-0.5,0.1-0.5-0.5-1-0.4
			c0.2-0.7-1-0.7-0.9-1.6c-0.5-0.6-1.1-1.1-1.4-2c-1.3-1.3-2.5,0.4-3.8,0.8c0,0.2,0,0.5,0,0.7c-0.2,0-0.2,0.1-0.4,0.1
			c0.2,1.2-0.9,1.8-1.2,2.8c-1,0.8-1.5,1.8-2.3,2.9c-0.7,0-0.7,0.7-1.2,0.8c-0.4-0.2-0.9-0.3-1.2-0.6c0.8-1.2,1.5-2.6,2.5-3.7
			c0-0.1-0.1-0.1-0.2-0.1c0-0.2,0.4-0.1,0.4-0.2c0.5-1.2,1.3-1.1,1.6-2.6c0.1,0,0.2,0,0.3,0c0-0.5,0.6-0.9,0.6-1.8
			c0.3-0.1,0.2-0.5,0.5-0.5c-0.1-0.7-0.8-0.8-0.9-1.4c-1.7,0.2-2.6-1.6-4-0.9c-0.1,0-0.1,0.2,0,0.2c-0.6,0.3-1.4,0.5-2.4,0.4
			c-0.4,0.6-1.2,0.8-1.7,1.3c-0.1-0.1-0.4-0.1-0.5-0.2c0.1-0.3,0.1-0.2,0-0.5c0.5-0.2,1-0.3,1.2-0.8c0.9-0.1,1.3-0.8,1.7-1.4
			c0.8,0.1,1.6-1,0.9-2c-0.2-0.4-0.9-0.5-1.8-0.5c0.2-0.4-0.6-0.4-0.8-0.8c-0.4-0.5-0.2-1.2-0.6-1.8c-0.3-0.2-0.7-0.3-0.7-0.7
			c-1.1-0.3-2,0.3-2.9-0.1c-0.2-0.4-0.2-1-0.4-1.5c-0.7-0.2-0.8,0.1-1.4,0.3c-0.7,0.3-1.4,0.1-1.7,0.7c-1.2-0.1-2.1,0.3-3,0.6
			c-0.1,0-0.1,0.2-0.1,0.2c-1.8,0.6-3.9,0.5-5.1,1.6c-0.1-0.3-0.4-0.3-0.4-0.6c0.4-0.4,1.1-0.6,2-0.6c0.2-0.2,0.4-0.5,0.5-0.8
			c0.9-0.2,1.6-0.4,2.4-0.6c0.2-0.1,1.1-0.5,1.5-0.5c0.6,0,1.6,0.5,2-0.3c0.8,0.1,0.9-0.5,1.8-0.3c0.6-0.6,1.7-0.7,2.7-0.4
			c0.2-0.1,0.2-0.3,0.5-0.3c0.3-1,0.1-2.3-0.4-2.7c-0.3-1-1.6-1.1-1.8-2.3c-1.1-0.6-1.5-1.7-1.3-3.2c0.1-0.5,0.5-1.1,0.7-1.7
			c0.1-0.3,0.1-0.9,0.5-0.9c0.1-0.7,0.3-1.3,0.4-2c-0.1-0.3-0.4-0.4-0.5-0.7c-0.2,0-0.5,0-0.7,0c-0.2-0.6-1.3-0.3-1.7-0.7l0.2-0.1
			l0.4,0.3c0.7-0.1,0.9-0.7,1.4-1.2c0.7-0.1,1.4-0.2,1.4-0.9c0.1,0,0.2,0,0.3,0c-0.2-0.7,0.1-1.6,0.4-2.1c0-0.1-0.1-0.1-0.2-0.1
			c0.2-0.3,0.2-0.7,0-0.9c-1-0.7-1.9-1.4-3-1.9c0-0.3,0-0.5-0.2-0.5c0.2-0.2,0.5-0.3,0.5-0.6c-0.4-0.5-1.2-0.7-1.5-1.3l0.2-0.1
			L36.1,36.7z"/>
	</g>
	<g>
		<path class="st0" d="M91.3,72.3L91.3,72.3c0.4,0,0.7,0.1,0.6,0.6c-0.1,0-0.2,0-0.2,0.1c-0.4,0-0.9-0.8-0.5-0.8L91.3,72.3z"/>
	</g>
	<g>
		<path class="st0" d="M36.7,46.5l0.1,0.2c-0.4,0.1-1.3-0.1-2.1-0.3c-0.1,0-0.3-0.2-0.4-0.2c-0.3-0.1-0.5,0.1-1.1-0.1
			c-0.6-0.2-1.4,0-2.2-0.1c-0.7-0.1-1.3-0.4-2-0.4c-0.4,0-1.4-0.2-2-0.3s-1.2-0.4-1.6-0.7c0-0.2,0.4,0,0.5-0.1c0.5-1,2.2-0.8,2.9,0
			c2.6-0.4,4.4,0.6,6.4,1c0.3,0.3,0.7,0.6,1.4,0.6C36.6,46.2,36.6,46.3,36.7,46.5L36.7,46.5z"/>
	</g>
	<g>
		<path class="st0" d="M35.7,36.4l0.1,0.2c-0.2,0-0.4,0-0.5,0c-0.7-0.8-1.7-1.3-2.6-1.9c0.1-0.3-0.2-0.4-0.1-0.7
			c1.3-0.5,1.3,1.4,2.5,1.3c-0.3,0.7,0.7,0.6,0.8,1.2L35.7,36.4z"/>
	</g>
	<g>
		<path class="st0" d="M113.3,21c0.1,0.1-0.1,0.7-0.4,0.6C112.8,21.1,113.2,21.2,113.3,21z"/>
	</g>
	<g>
		<path class="st0" d="M34.1,25.8c0.8-0.2,1.9,0.8,2.2,1.7C35.1,27.9,34.8,26.4,34.1,25.8z"/>
	</g>
	<g>
		<path class="st0" d="M121.3,54.7c0.1-0.1,0.5-0.1,0.9-0.1c0,0.6-0.3,0.4-0.8,0.4C121.4,54.9,121.5,54.8,121.3,54.7z"/>
	</g>
	<g>
		<path class="st0" d="M42.3,73.2c-0.2,0-0.4-0.1-0.4,0.1C41.6,73.2,42.4,72.6,42.3,73.2z"/>
	</g>
	<g>
		<path class="st0" d="M100.7,14.3c-0.3-0.1-0.2,0.2-0.2,0.1c-0.1,0.2-0.4,0.3-0.6,0.5s-0.2,0.4-0.6,0.6c-0.3,0,0.1-0.5-0.3-0.3
			C99.1,14.5,100.1,13.3,100.7,14.3z"/>
	</g>
	<g>
		<path class="st0" d="M92.9,15.3C92.7,16,92,16.1,92,16.9c-0.6,0.1-0.5,0.3-0.8,0.7c-0.6-0.4-0.2-0.5-0.3-1.4
			C91.5,16,92,15.4,92.9,15.3z"/>
	</g>
	<g>
		<path class="st0" d="M30,17.8c0.7,0.1,1.1,0.4,1.2,1.1c0.7,0.3,0.9,1,1.8,1.2c0,0.5,0.9,0.5,0.6,0.9c0.7,0.1,0.7,0.9,1.5,0.9
			c0.3,0.7,0.7,1.2,1.4,1.5c0.1,0.1,0.1,0.2,0.1,0.4c0.8-0.3,0.8,1.3,1.6,1c0.2,0.6,0.6,1.1,1.3,0.9c0.3,1.1,1,1,1.1,2.2
			c-1.3,0-1.5-1.4-2.7-1.8c-0.1-0.2-0.4-0.3-0.4-0.6c-0.1-0.3-0.7-0.1-0.6-0.6c-0.2,0-0.3,0-0.5,0c-0.8-0.8-1.5-1.8-2.4-2.5
			c0-0.3-0.2-0.2,0-0.4c-0.6-0.1-0.6-0.9-1.4-0.8c-0.4,0.3-0.6,0.6-1.1,0.2c-0.1-0.5,0.2-0.6,0.4-0.8c-0.5-0.9-1-1.7-1.9-2.2
			C30.1,18.1,29.9,18.1,30,17.8z"/>
	</g>
	<g>
		<path class="st0" d="M31.7,85.2c-0.1-0.4,0.2-0.4,0.2-0.7c1-0.4,1.4-1.4,1.6-2.5c0.1,0,0.3,0,0.4,0c0.9-1.2,2.2-2,2.9-3.4
			c0.9-0.3,1.1-1.1,2-1.4c0.2-0.6-0.9-1.6,0.5-1.5c-0.2,0.2,0,0.3,0,0.5h0.1l-0.1,0.2l0.2-0.1c0.4,0.8-1.1,1.3-1.3,2.2
			C38,78.6,38,79,37.7,79c0.1,1.1-0.9,1-0.9,1.9c-0.5,0.3-1.1,0.6-1.3,1.3c-0.4-0.1-0.3,0.3-0.6,0.2c-0.7,1.2-1.9,2-2.8,2.9L32,85.1
			L31.7,85.2z"/>
	</g>
	<g>
		<path class="st0" d="M31.4,85.5l0.1,0.1c-0.3,0.4-0.3,1.1-1.2,1.1c-0.1-0.9,0.5-1.1,1-1.4L31.4,85.5z"/>
	</g>
	<g>
		<path class="st0" d="M73.6,0.5C73.5,0.5,73.5,0.5,73.6,0.5c-0.1,0-0.2-0.1-0.2-0.2s0-0.1,0-0.2s0.1-0.2,0.2-0.2s0.2,0.1,0.2,0.2
			s0,0.2,0,0.2C73.7,0.5,73.6,0.5,73.6,0.5z"/>
	</g>
	<g>
		<path class="st0" d="M49.8,22.9c-0.1,0-0.1,0-0.1-0.1s-0.1-0.2-0.1-0.3c-0.1-0.3-0.2-0.6-0.4-0.8c0-0.1,0-0.1,0-0.2
			c0.1,0,0.1,0,0.2,0c0.2,0.3,0.3,0.6,0.4,0.9c0,0.1,0.1,0.2,0.1,0.3C50,22.8,50,22.8,49.8,22.9C49.9,22.9,49.9,22.9,49.8,22.9z"/>
	</g>
	<g>
		<path class="st0" d="M111.1,22.9L111.1,22.9c-0.1,0-0.2-0.1-0.1-0.2c0-0.2,0.2-0.3,0.3-0.3c0.1,0,0.1,0,0.1-0.1s0.1-0.1,0.2-0.1
			s0.1,0.1,0.1,0.2c-0.1,0.1-0.2,0.2-0.3,0.2c-0.1,0-0.1,0-0.1,0.1C111.2,22.8,111.2,22.9,111.1,22.9z"/>
	</g>
	<g>
		<path class="st0" d="M33.4,25.2L33.4,25.2L33.1,25c-0.1-0.1-0.1-0.2,0-0.2c0.1-0.1,0.2-0.1,0.2,0l0.2,0.2c0.1,0.1,0.1,0.2,0,0.2
			C33.5,25.1,33.4,25.2,33.4,25.2z"/>
	</g>
	<g>
		<path class="st0" d="M32.5,24.4L32.5,24.4c-0.1-0.1-0.2-0.1-0.3-0.2s-0.1-0.2,0-0.2c0.1-0.1,0.2-0.1,0.2,0c0.1,0,0.1,0.1,0.2,0.1
			c0.1,0,0.1,0.1,0.1,0.2C32.6,24.4,32.6,24.4,32.5,24.4z"/>
	</g>
	<g>
		<path class="st0" d="M17.5,41.3L17.5,41.3l-0.3-0.1c-0.1,0-0.1-0.1-0.1-0.2c0-0.1,0.1-0.1,0.2-0.1l0.2,0.1c0.1,0,0.1,0.1,0.1,0.2
			C17.6,41.3,17.6,41.3,17.5,41.3z"/>
	</g>
	<g>
		<path class="st0" d="M25.2,44.7C25.1,44.7,25.1,44.7,25.2,44.7c-0.1-0.1-0.2-0.1-0.3-0.1c-0.1,0-0.2-0.1-0.3-0.2v-0.1h0.1
			c0.1,0.1,0.1,0.1,0.2,0.1s0.2,0.1,0.3,0.1C25.2,44.6,25.2,44.6,25.2,44.7L25.2,44.7z"/>
	</g>
	<g>
		<path class="st0" d="M24.1,49.8c-0.1,0-0.1,0-0.2,0h-0.1c-0.1,0-0.2-0.1-0.2-0.2c0-0.1,0.1-0.1,0.2-0.1l0,0h0.1
			c0.3,0,0.5,0,0.7-0.1c0.1,0,0.2,0,0.2,0.1s0,0.2-0.1,0.2C24.5,49.8,24.3,49.8,24.1,49.8z"/>
	</g>
	<g>
		<path class="st0" d="M21.3,49.5L21.3,49.5c-0.1,0-0.2,0-0.3-0.1c0,0-0.1,0-0.2,0s-0.1-0.1-0.1-0.1c0-0.1,0.1-0.1,0.1-0.1
			c0.1,0,0.1,0,0.2,0s0.1,0,0.2,0.1C21.3,49.3,21.4,49.4,21.3,49.5C21.4,49.5,21.3,49.5,21.3,49.5z"/>
	</g>
	<g>
		<path class="st0" d="M109.1,50.1C109.1,50.1,109,50.1,109.1,50.1C109,50,109,50,109.1,50.1c0.1-0.2,0.2-0.2,0.3-0.2c0,0,0,0,0.1,0
			h0.1V50c0,0,0,0-0.1,0C109.3,50.1,109.2,50.1,109.1,50.1L109.1,50.1z"/>
	</g>
	<g>
		<path class="st0" d="M105.1,51.4c-0.1,0-0.1,0-0.2,0s-0.1-0.1-0.1-0.2c0-0.1,0.1-0.1,0.2-0.1s0.3,0,0.4-0.1c0.1,0,0.2,0,0.2,0.1
			s0,0.2-0.1,0.2C105.5,51.3,105.3,51.4,105.1,51.4z"/>
	</g>
	<g>
		<path class="st0" d="M16.9,51.6c-0.1,0-0.2,0-0.3,0c-0.1,0-0.1-0.1-0.1-0.2c0-0.1,0.1-0.1,0.2-0.1s0.3,0,0.4,0s0.1,0,0.2,0.1
			c0,0.1,0,0.1-0.1,0.2C17.1,51.6,17,51.6,16.9,51.6z"/>
	</g>
	<g>
		<path class="st0" d="M110,53.7c-0.2,0-0.3-0.1-0.4-0.2c-0.1-0.1-0.2-0.2-0.3-0.1c-0.1,0-0.1,0-0.1-0.1s0-0.1,0.1-0.1
			c0.3-0.1,0.4,0,0.5,0.2c0.1,0.1,0.2,0.2,0.3,0.1c0.1,0,0.1,0,0.1,0.1C110.1,53.7,110.1,53.7,110,53.7L110,53.7z"/>
	</g>
	<g>
		<path class="st0" d="M118.5,54.9c-0.1,0-0.2,0-0.2-0.1s0-0.2,0.1-0.3c0.2-0.1,0.4-0.1,0.5-0.1s0.2,0,0.3,0c0.1,0,0.2,0,0.3,0.1
			c0,0.1,0,0.2-0.1,0.3c-0.2,0.1-0.3,0.1-0.5,0.1C118.8,54.8,118.7,54.8,118.5,54.9C118.6,54.9,118.6,54.9,118.5,54.9z"/>
	</g>
	<g>
		<path class="st0" d="M114.1,57.6L114.1,57.6l-0.3-0.1c-0.1,0-0.1-0.1-0.1-0.2c0-0.1,0.1-0.1,0.2-0.1l0.2,0.1
			C114.2,57.3,114.2,57.4,114.1,57.6C114.3,57.6,114.2,57.6,114.1,57.6z"/>
	</g>
	<g>
		<path class="st0" d="M105.2,61.3L105.2,61.3c-0.2-0.1-0.4-0.2-0.5-0.2s-0.1-0.1-0.1-0.1c0-0.1,0.1-0.1,0.1-0.1
			c0.2,0,0.4,0.1,0.6,0.2C105.3,61.1,105.3,61.2,105.2,61.3C105.3,61.3,105.2,61.3,105.2,61.3z"/>
	</g>
	<g>
		<path class="st0" d="M112.9,62.1C112.9,62.1,112.8,62.1,112.9,62.1c-0.1,0-0.3,0-0.4,0s-0.3,0-0.4,0S112,62,112,61.9
			c0-0.1,0.1-0.1,0.2-0.1s0.2,0,0.3,0c0.1,0,0.3,0,0.4,0S113,61.9,112.9,62.1C113,62.1,112.9,62.1,112.9,62.1z"/>
	</g>
	<g>
		<path class="st0" d="M107.7,65.7L107.7,65.7c-0.2,0-0.2-0.1-0.3-0.1c-0.1-0.1-0.3-0.1-0.4-0.2c-0.1,0-0.2-0.1-0.1-0.2
			c0-0.1,0.1-0.1,0.2-0.1c0.2,0,0.4,0.1,0.5,0.2c0.1,0,0.2,0.1,0.2,0.1c0.1,0,0.1,0.1,0.1,0.2C107.9,65.7,107.8,65.7,107.7,65.7z"/>
	</g>
	<g>
		<path class="st0" d="M102.4,71.5C102.3,71.5,102.3,71.5,102.4,71.5c-0.1-0.1-0.2-0.2-0.4-0.2c-0.1,0-0.1,0-0.2,0s-0.1-0.1-0.1-0.1
			c0-0.1,0.1-0.1,0.1-0.1s0.1,0,0.2,0s0.3,0.1,0.4,0.2S102.5,71.4,102.4,71.5L102.4,71.5z"/>
	</g>
	<g>
		<path class="st0" d="M100.5,70.6L100.5,70.6c-0.1,0-0.2,0-0.2-0.1c-0.1,0-0.2-0.1-0.3-0.1c-0.1-0.1-0.1-0.2,0-0.2
			c0.1-0.1,0.2-0.1,0.2,0c0,0,0.1,0,0.1,0.1c0.1,0,0.1,0.1,0.2,0.1C100.6,70.5,100.6,70.6,100.5,70.6
			C100.6,70.6,100.6,70.6,100.5,70.6z"/>
	</g>
	<g>
		<path class="st0" d="M41.1,74.5C41.1,74.5,41,74.5,41.1,74.5c-0.1,0-0.2-0.1-0.1-0.2c0-0.1,0.1-0.2,0.2-0.2c0.1-0.1,0.1-0.1,0.2,0
			c0.1,0.1,0.1,0.1,0,0.2c0,0.1-0.1,0.1-0.1,0.2C41.2,74.4,41.2,74.5,41.1,74.5z"/>
	</g>
	<g>
		<path class="st0" d="M34.8,76.1C34.8,76.1,34.7,76.1,34.8,76.1c-0.1,0-0.2-0.1-0.2-0.2c0.1-0.4,0.5-0.6,0.8-0.8
			c0.1,0,0.2,0,0.2,0.1s0,0.2-0.1,0.2c-0.2,0.1-0.5,0.3-0.6,0.6C34.9,76,34.8,76.1,34.8,76.1z"/>
	</g>
	<g>
		<path class="st0" d="M71.7,23.6C71.7,23.6,71.7,23.5,71.7,23.6c-0.1-0.1-0.1-0.2-0.2-0.3v-0.1h0.1c0,0.1,0,0.1,0.1,0.2
			C71.8,23.5,71.8,23.5,71.7,23.6C71.7,23.5,71.7,23.6,71.7,23.6z"/>
	</g>
	<g>
		<path class="st0" d="M91.3,72.4C91.2,72.4,91.2,72.3,91.3,72.4c-0.1-0.2-0.2-0.2-0.4-0.3c-0.1,0-0.1,0-0.2-0.1c0,0-0.1-0.1,0-0.1
			c0,0,0.1-0.1,0.1,0c0,0,0.1,0,0.1,0.1C91.1,72,91.4,72,91.3,72.4C91.4,72.3,91.3,72.4,91.3,72.4L91.3,72.4z"/>
	</g>
	<g>
		<path class="st0" d="M37,46.8L37,46.8c-0.1,0-0.2-0.1-0.2-0.1c-0.1,0-0.1-0.1-0.2-0.1c-0.1,0-0.1-0.1-0.1-0.2
			c0-0.1,0.1-0.1,0.2-0.1c0.1,0,0.1,0.1,0.2,0.1c0,0,0.1,0,0.1,0.1C37.1,46.5,37.1,46.6,37,46.8C37.2,46.8,37.1,46.8,37,46.8z"/>
	</g>
	<g>
		<path class="st0" d="M36.2,36.9L36.2,36.9c-0.2,0-0.3-0.2-0.4-0.3c-0.1-0.1-0.1-0.1-0.2-0.2c-0.1,0-0.1-0.1-0.1-0.1
			c0-0.1,0.1-0.1,0.1-0.1c0.1,0,0.2,0.2,0.3,0.2c0.1,0.1,0.1,0.2,0.2,0.2c0.1,0,0.1,0.1,0.1,0.1C36.3,36.9,36.2,36.9,36.2,36.9z"/>
	</g>
	<g>
		<path class="st0" d="M39.4,76.5L39.4,76.5C39.3,76.4,39.3,76.4,39.4,76.5c0.1-0.2,0.2-0.2,0.2-0.2h0.1v0.1
			C39.6,76.4,39.5,76.4,39.4,76.5C39.5,76.5,39.5,76.5,39.4,76.5z"/>
	</g>
	<g>
		<path class="st0" d="M31.4,85.6c-0.1,0-0.1,0-0.1-0.1s0-0.2,0.1-0.2h0.1c0.1,0,0.1,0,0.2,0c0,0,0.1-0.1,0.1-0.2l0,0
			c0-0.1,0.1-0.1,0.2-0.1s0.1,0.1,0.1,0.2l0,0c0,0.1-0.1,0.2-0.2,0.3l0,0l0,0c-0.1,0-0.2,0-0.2,0.1L31.4,85.6L31.4,85.6z"/>
	</g>
</g>
</svg>
