<?xml version="1.0" encoding="utf-8"?>
<!-- Generator: Adobe Illustrator 21.0.0, SVG Export Plug-In . SVG Version: 6.00 Build 0)  -->
<svg version="1.1" id="Capa_1" xmlns="http://www.w3.org/2000/svg" xmlns:xlink="http://www.w3.org/1999/xlink" x="0px" y="0px"
	 viewBox="0 0 111.2 94.4" style="enable-background:new 0 0 111.2 94.4;" xml:space="preserve">
<style type="text/css">
	.st0{fill-rule:evenodd;clip-rule:evenodd;fill:#696969;}
</style>
<g>
	<path class="st0" d="M111.1,35.4c-0.2-0.7-1.6-0.8-2.2-0.7c-0.8,0.1-1.2,0.8-2,0.7c-0.3,0.5-0.9,0.7-1.5,0.6
		c-0.4,0.6-1,0.3-1.9,0.2c-0.4,0.2-0.5,0.4-1,0.1c-0.2,0.3-0.7,0.3-1,0.5l0.2,0l-0.1,0.1c0.1,0.2-0.1,0.2,0.2,0.3
		c1.5,0.5,3.1-0.7,4.8-0.7c0.1-0.1,0.2-0.3,0.4-0.3C108.2,36.9,111.5,36.9,111.1,35.4z"/>
	<path class="st0" d="M63.2,2.9c0.2-0.1,0.2-0.3,0.2-0.6l-0.2,0.1l-0.1-0.2C63,2.3,62.9,3.1,63.2,2.9z"/>
	<path class="st0" d="M89.1,5.7c2.5,0.4,3.2-1.5,3.1-3.3c-0.7-0.3-0.7-1-1.3-1.2C90.2,0.8,88.7,1,88,1.4c-0.8,0.6-1.2,2.2-0.7,3
		C87.7,5.1,88.6,5,89.1,5.7z"/>
	<path class="st0" d="M63.2,10c0.1,0,0.1,0,0.1,0.1c0.1,0,0.1,0,0.2,0C63.7,9.9,63.2,9.8,63.2,10z"/>
	<path class="st0" d="M44,12.6c0-0.3,0-0.5-0.2-0.5C43.8,12.3,43.7,12.6,44,12.6z"/>
	<path class="st0" d="M44,12.8c-0.1,0.2-0.5,0.1-0.4,0.5C43.9,13.7,44.5,12.9,44,12.8z"/>
	<path class="st0" d="M99.2,23.7c1.5,0.1,2.3-0.9,2.8-1.8c-0.1-0.4-0.3-0.7-0.2-1.3c-0.5-0.4-1.1-1-1.7-1.1
		c-1.6-0.3-3.7,1.6-2.9,2.9C97.6,23.1,98.3,23.7,99.2,23.7z"/>
	<path class="st0" d="M17.2,20.7c-0.4,0-0.5,0.1-0.5,0.5C17,21.1,17.1,20.9,17.2,20.7z"/>
	<path class="st0" d="M77.1,21.3c0-0.2,0.3-0.2,0.2-0.5c-0.1,0-0.3,0-0.4,0C76.9,21,76.9,21.3,77.1,21.3z"/>
	<path class="st0" d="M43.3,23.6c0,0.3,0.1,0.5,0.3,0.6l0.1-0.2l0.2,0C43.8,23.7,43.6,23.6,43.3,23.6z"/>
	<path class="st0" d="M45.2,26.7c0-0.2,0-0.4-0.2-0.4C45,26.4,44.9,26.8,45.2,26.7z"/>
	<path class="st0" d="M33.7,28.2c0.4-0.1,0.5,0.2,0.7,0L34.4,28l0.1-0.2c0-0.2-0.7-0.3-0.9,0C33.7,27.9,33.8,28,33.7,28.2z"/>
	<path class="st0" d="M38.1,30.8c0-0.1,0-0.2,0.2-0.2c0-0.2-0.1-0.3-0.2-0.3C38,30.5,37.7,30.7,38.1,30.8z"/>
	<path class="st0" d="M80.7,30.4c-0.1,0.1-0.1,0.3-0.1,0.5C81.2,31.1,81.4,30.3,80.7,30.4z"/>
	<path class="st0" d="M26.3,33.2c-0.6-0.3-1.4-0.1-1.2,0.7C25.7,34.4,26.3,33.9,26.3,33.2z"/>
	<path class="st0" d="M101.3,37l0-0.2c-0.2-0.3-0.4,0.2-0.6,0.2c0.1,0-0.2-0.2-0.3-0.2c-0.8-0.1-2.1,0.1-2.1,0.5
		c0-0.1,0.4,0.5,0.3,0.4c0.6,0.3,2-0.3,2.6-0.2c0-0.2,0.3-0.2,0.2-0.5L101.3,37z"/>
	<path class="st0" d="M27.7,35.6c-0.1-0.2-0.6,0.1-0.3,0.2C27.4,35.6,27.6,35.7,27.7,35.6z"/>
	<path class="st0" d="M95.7,37.4c0,0.2,0,0.4,0.2,0.4C96.1,37.6,96.1,37.3,95.7,37.4z"/>
	<path class="st0" d="M35.4,42.3C35,41.9,35,42.6,35.4,42.3L35.4,42.3z"/>
	<path class="st0" d="M85.3,45.1c0.2-0.2,0-0.4-0.3-0.4C85,44.9,85,45.1,85.3,45.1z"/>
	<path class="st0" d="M97.9,63.6c-0.1,0.3-0.1,0.5-0.1,0.9c0.4,0,0.3,0.4,0.7,0.3c0.4-0.2,0.5-0.9,0.2-1.3
		C98.3,63.5,98.2,63.7,97.9,63.6z"/>
	<path class="st0" d="M61.3,80.1l-0.1,0.1L61,80.2c-0.1,1.2-0.1,2,0.3,2.7l0.1-0.2l0.2,0.1C61.6,81.6,61.6,80.6,61.3,80.1z"/>
	<path class="st0" d="M61.7,85l-0.2-0.1c-0.2,0.5-0.1,1.5,0.3,1.7c0.6-0.2,0.2-1.5,0-1.8L61.7,85z"/>
	<path class="st0" d="M78,83.2c0,0.1-0.1,0.1-0.2,0c0,0.1,0,0.2-0.1,0.2c0-0.1,0-0.1-0.1-0.1c0.1,0.1,0.1,0.8,0.2,0.5
		C77.7,83.5,78.4,83.5,78,83.2z"/>
	<path class="st0" d="M94.7,38.1c-0.2-0.3,0-0.5-0.3-0.5c-0.7,0-1.1,0.3-1.6,0.3c0.1,0,0.1,0.1,0,0.1c-1.9-0.3-4.6,0.3-6.4-0.7
		c-0.2-1.1-1.1-1.4-1.9-1.8c-0.2-0.1-0.4-0.4-0.6-0.5c-0.1-0.1-0.4,0-0.5,0c-0.1,0-0.2-0.3-0.3-0.3c-0.3-0.1-0.6-0.1-0.9-0.2
		c-0.7-0.1-1.7-0.3-2.4-0.5c-1.4-0.3-2.3-0.4-2.3-1.7c-0.1-0.4,0.4-0.3,0.3-0.6c-0.2-0.8,0.1-1.4,0.5-1.9c0.1-0.2,0.3-0.4,0.4-0.6
		c0.6-0.9,1.2-1.4,1.8-2c0.3-0.2,0.4-0.6,0.7-0.9c0.4-0.4,0.9-0.7,1.2-1.1c0.4-0.5,0.5-1.3,1.2-1.5c0.1-0.7,0.5-0.9,0.8-1.3
		c0-0.4,0.2-0.6,0.2-1c1.5-1.5,2.8-3.3,4.5-4.7c0-0.2,0.2-0.3,0.1-0.6c0.3,0,0.2,0.2,0.4,0c0.1-0.3,0.4-0.4,0.4-0.8
		c0.8-0.6,1.7-0.9,2.5-1.4c0.3-0.2,0.5-0.7,1-0.6c-0.2-0.3,0.2-0.2,0.3-0.4c0.4-0.6,0.3-1.4,0.7-1.9c-0.1-0.4-0.3-0.8-0.6-0.9
		c-0.5-0.1-0.8,0.1-1.3,0.1c-0.3,0.4-0.6,0.7-1,0.9c0,0.2-0.2,0.3-0.1,0.6c-1.1,1.2-2.3,2.2-3.2,3.5c-0.2,0-0.3,0-0.4,0.1
		c-0.3,0.2-0.4,0.7-0.7,0.9c-0.1,0.1-0.3,0-0.4,0.1c-0.1,0.1-0.1,0.4-0.2,0.5c-0.1,0.1-0.4,0.2-0.5,0.3c-0.2,0.3-0.4,0.6-0.7,0.8
		c-0.4,0.4-1,0.6-1.3,1c-0.2,0.2-0.1,0.5-0.2,0.7c-0.2,0.4-0.8,0.9-1.2,1.3c-1,1.1-2.3,2-2.6,3.6c0,0.2,0.5-0.1,0.3,0.3
		c-0.4,0.1-0.4,0.5-0.6,0.8c-0.5,0.6-1.3,0.7-1.9,1.2c-0.6,0-1-0.1-1.5-0.2c-0.6-1.3-1.9-1.8-2.4-2.9c-0.2-0.3-0.3-1-0.4-1.4
		c-0.1-0.6,0.2-0.9,0.2-1.2c0.1-1.5-0.7-3.1-0.8-4.5c0.2-0.2,0.3-0.6,0.8-0.6c-0.3-0.7,0.4-1.1,0.6-1.6c0-2.1,2.5-2.5,1.7-4.8
		c-1.5-0.7-2.5,1-2.3,2.9c-0.6,1-0.8,2.5-2.2,2.7c-1.4-1.5-4.1-1-5.7-0.3c-1.2,1.8-2.3,3.7-3.4,5.6c-1.2,0.7-2.9,1.7-4.7,1
		c-0.6-0.8-1-0.9-1.3-1.5c-0.4-0.9-0.4-2.5-0.2-3.6c0.3-1.7,1.3-3.2,1.5-4.8c0.2-1.8-0.5-4-2.1-3c-1,0.7-0.7,3.6-0.8,4.8
		c-0.1,1-0.9,2.9-1,3.5c-0.3,1.4-0.1,2.8-0.7,3.4c-0.9,0.4-1.4,1.2-2,1.8c0,1-0.6,1.5-1,2.1c0,0.2,0,0.3,0,0.5
		c-0.2,0.2-0.3,0.5-0.5,0.7c-0.5,0.7-1.1,1.2-1.7,1.8c-0.4,0.2-1,0.4-1.4,0.6c0-0.2-0.1-0.3-0.2-0.3c-0.2,0.3,0.1,0.4-0.1,0.5
		c-0.2-0.3-0.2,0.5-0.4,0c0,0.5-0.3,0.8-0.7,1.1c-0.3,0.2-0.8,0.2-1.3,0.5c-1.2,0.6-2.4,2-3.8,1.7C39,31.8,38,32.1,37,32.1
		c-0.2,0-0.4-0.1-0.5-0.1c-0.5,0.1-0.9,0.3-1.4,0.3c-0.8-0.1-1.8-0.7-2.2-1.1c-1.7-0.4-2.5-1.2-4.1-1.6c-0.4-0.6-1.1-0.8-2-0.9
		c-0.1-0.3-0.5-0.4-0.6-0.7c-0.9-0.2-1.6-0.7-2-1.3c-0.7,0.1-0.7-0.7-1.4-0.6c-1.1-1.1-2.6-1.8-3.8-2.8c-0.3,0-0.4-0.2-0.7-0.2
		c-0.1-0.6-0.7-0.3-0.8-0.9c-0.2,0.1-0.8-0.3-0.9-0.6c0.1,0,0.1-0.1,0-0.1c-0.6,0.1-1-0.9-1.9-0.8c-1.4-1.3-3.5-2-4.6-3.3
		c-0.3-0.1-0.2,0-0.6,0c0-0.2,0-0.3-0.1-0.4c-0.6-0.2-1.2-0.5-1.6-0.8c-0.1-0.1-0.2-0.2-0.3-0.3c-1.2-0.9-2.6-1.5-3.2-2.7
		c-0.9-0.7-2.1-1.3-3.8-0.9C0.2,12.4,0,12.6,0,13c0,0.2,0.7,1.3,1.1,1.7C1.4,15,1.6,14.9,2,15c0.3,0.1,0.5,0.4,0.7,0.4
		c0.4,0.1,0.8-0.2,1.1-0.1c0.9,0.2,1.5,1.2,2.2,1.1c-0.2,0.2,0,0.1,0.1,0.3C6.9,17,7.7,17.2,8,17.9c1.6,0.7,2.5,2,4,2.4
		c0.5,0.6,1.2,0.9,2.1,1.3c0.5,0.5,1.3,1.4,2,1.3c-0.1,0.7,1.1,1,1.4,1.6c0.2,0,0.3,0.2,0.6,0.1c0.4,0.5,0.9,0.9,1.6,1.1
		c0,0.4,0.4,0.4,0.6,0.5c0.1,0.1,0.1,0.3,0.2,0.3c0.2,0.1,0.4,0,0.5,0.1c0.3,0.2,0.4,0.6,0.7,0.6c-0.1,0,1.2,0.3,1.1,1
		c1,0,1.2,0.9,2,1.1c0,0.3,0.2,0.8,0.5,1.1c0.1,0.1,0.4,0.1,0.5,0.2c0.2,0.1-0.1,0.4,0.3,0.2c0,0.3,0.2,0.3,0.2,0.5
		c0.2,0.2,0.3,0,0.5,0c0.7,1,2,1.8,3.4,2.3c0.2,0.1,0.4-0.1,0.6,0c0.1,0,0.5,0.3,0.7,0.4c0.3,0.1,0.6,0.3,0.8,0.4
		c0.2,0.2,0.3,0.6,0.5,0.7c0.2,0.1,0.2-0.2,0.4,0c0,0-0.1,0.2-0.1,0.2c0.1,0.2,0.6,0.3,0.6,0.5c0.2,0.7,0.4,1.4,0.9,1.8
		c-0.3,0.1,0.2,0.5-0.1,0.7c0.9,0.6,1,1.4,1,2.6c-0.2,0-0.4-0.3-0.4,0.1c0.4,0,0,0.1,0,0.2c0,0.4,0.4,1-0.1,1.3
		c-0.1,0.1-0.1-0.2-0.2-0.2c0,0.3,0.2,0.4,0.3,0.5c-0.2,0.1-0.3,0.3-0.5,0.5c0.5,0.1,0.1,0.3,0.5,0.3c-0.1,0.4,0.3,0.2,0.3,0.5
		c-0.2,0.4,0.3,0.7,0.4,1.3c-0.5-0.3,0,0.6-0.6,0.7c0.5,0,0.1,0.1,0.3,0.4c-0.2-0.2-0.2,0.2-0.3,0.3c-0.4,0.4-1.2,0.7-1.9,0.8
		c-1.3,0.3-2.8,0.1-3.5,0.7c-1.7-0.1-3.3,0.4-4.7,0.7C25.2,49.5,25.3,50,25,50c-0.7,0-1.1-0.2-1.7,0c-1.6-1.3-3.3,0.9-5.3,0.1
		c-0.7,0.4-1.9,0.7-3,0.9c-0.9,0.1-2.3,0.5-2.4,1.3c-0.1,0.9,0.7,1.2,1.5,1.1c0.1,0,0.5-0.3,0.7-0.4c0.8-0.4,1.8-0.8,2.6-0.4
		c0.2-0.4,0.6-0.2,1-0.3c0.1-0.1,0.1-0.2,0.3-0.3c0.8-0.3,2.5-0.4,3.1-0.6c0.6-0.2,0.9,0,1.2,0.1c0.9,0.2,1.7-0.3,2.5-0.4
		c0.2,0,0.5,0.1,0.7,0.1c0,0,0.2-0.2,0.3-0.2c0.4-0.1,1,0.1,1.5,0.1c0.7,0,1.5-0.3,2.3-0.2c1,0.1,1.9,0.1,2.8-0.3
		c0.2,0,0.4,0.2,0.7,0.1c0.5-0.4,1.5-0.4,2.1-0.3c0.2,0.8,0.3,1.3,0.5,1.9c-0.1-0.2-0.2,0-0.3,0.1c-0.4,0.3-0.3,0.4-0.3,0.6
		c0,0-0.3,0.2-0.3,0.2c0,0-0.6,0.3-1.1,0.6c-0.1,0.6-0.1,0.8-0.4,1.3c-0.6,1-1.3,1.6-2,2.1c-0.6,0.5-1.3,1-1.8,1.3
		c-0.5,0.3-1.1,0.7-1.5,0.9c-0.1,0-0.3,0-0.4,0c-0.8,0.3-1.7,0.9-2.5,1c-0.7,0.8-1.6,1.2-3,1.2c-0.7,0.7-2.7,0.9-2.4,2.1
		c0.3,1.2,2,0.4,3.1,0.3c0.5-0.5,0.8-1.1,1.3-1.5c1-0.3,1.5-1.5,2.7-1.2c0.3-0.7,1.4-0.6,1.9-0.8c0,0.2,0,0.4,0.2,0.3
		c0.3-0.5,0.9-0.7,1.4-1c0.4-0.3,0.6-0.7,1-1c1.1-0.8,2-1,3.4-1.3c0.9-0.2,1.6-0.4,2.6-0.2c0.3,0.3,0.8,0.8,1,0.8
		c0.3,0.3,0.4,0.8,0.8,0.9c0.2,0.8,1.1,1.4,1.1,2.6c0.4,0.3,0.8,0.6,0.9,1.2c0.3,0.1,0.5,0.4,0.7,0.6c0.1,0.1,0.6,0.7,0.6,0.7
		c0.4,0.2,1.1,0.1,1.7,0.3c0.4,0.1,0.6,0.3,0.9,0.4c0.5,0.1,1,0,1.4,0.1c0.6,0.1,1,0.5,1.5,0.3c0.3,0.6,0.9,0.7,1.2,1.2
		c0.6,0.9,0.3,2.3,0.7,3.5c0.1,0.4,0.5,0.7,0.6,1c0.2,0.4,0.2,0.9,0.5,1.2c-0.3,1.2-0.3,2.7-0.9,3.5c-0.3,1.4,0,2.8,0.9,3.5
		c3.4,0.2,3-3.7,2.6-6.4c0.4-0.5,0.7-1.1,1.1-1.6c0.9-0.2,1.1-1.2,2.1-1.3c0.3,0.1,0.3,0.5,0.3,0.9c0.2,0.8,0.7,1.4,0.9,2.1
		c0.5,0.3,0.7,0.9,1.1,1.3c-0.2,0.6,0.1,1.4,0.3,1.9c0.2,0.1,0.5,0.1,0.8,0.1c0.7,1.2,1.9,2.5,1.6,4c-0.2-0.2-0.5-0.1-0.4,0.2
		c0.2,0.1,0.5-0.1,0.5,0.1c0.1,1,0.5,2,0.6,2.9c0.1,0.6-0.1,1.3,0,1.9c0.1,0.5,0.5,1,0.6,1.5c0.3,1,0.1,2.1,0.5,2.6
		c-0.4,1.5-0.8,5.7,1.3,4.5c0-1.4,0.9-2.1,0.4-3.4c-0.1-0.3-0.6-0.6-0.7-1c-0.2-0.8,0.1-1.8-0.1-2.7c-0.3-1.4-0.9-2.2-0.8-3.4
		c0-0.5,0.3-0.9,0.4-1.5c0.1-0.9,0-1.9-0.7-2.5C64,77.5,63,75,62.8,72.2c1.1-0.8,2.1,0.9,3.2,0.1c1.6,1,1.2,4.1,1.7,6
		c0.3,0.1,0.6,0.1,0.9,0.2c0.3-0.2,0.4-0.6,0.5-1c-0.5-0.4-0.3-1-0.5-1.8c-0.1-0.6-0.4-1.2-0.5-1.7c-0.2-1.6-1-3.4-0.8-4.4
		c0.2-1,1.4-1.2,2-0.7c0.2,1-0.9,3.5,0.7,3.6c0.8-0.4,0.6-1.2,0.6-2c0-1.5,0.8-2.6,1.2-3.3c0.2-0.3,0.2-0.6,0.3-0.8
		c0.2-0.3,0.5-0.5,0.6-0.7c0.3-0.6,0.4-1.6,1.3-1.5c0.3,0.1,0.1,0.6,0.5,0.6c0.1-0.2,0.3-0.2,0.5-0.3c0.7,0.1,1.3-0.7,2-1
		c0.1,0.2,0.7,0,0.7,0.3c0.3,0.6-0.5,2.1,0,2.2c0.9,0.2,0.5-1.8,1-2.2c0.4,0.3,1,0,1.2-0.2c0.7,0.3,1.1-0.1,1.7-0.2
		c0.4,0,0.9,0,1.3,0c0.9-0.1,1.4-0.3,2.1-0.4c0.9-0.1,1.9,0.1,2.7-0.2c0.3-0.1,0.5-0.6,0.9-0.4c0.4-0.7,1-1.1,1.1-1.9
		c0.2-1-0.3-1.4-0.4-2c-0.2-1.4,1-2.8,0.7-4.3c-0.2-0.9-1.2-1.5-1.6-2.3c-0.2-0.4-0.2-0.9-0.4-1.2c-0.8-1.3-2.5-1.9-2.8-3.3
		c0.5-0.3,1.9-0.1,1.4-1c-1,0-2.2,0.1-2.5-0.7c0.1-0.4,0.7-0.4,0.5-1.1c-0.3-0.1-0.1,0.3-0.4,0.3c-0.6-0.5-1.4-0.9-1.1-1.8
		c0.1-0.5,1-0.7,1.4-1c0.2-0.1,0.2-0.4,0.4-0.5c0.4-0.2,0.9-0.2,1-0.5c0.1,0.1,0.3,0.1,0.5,0.1c0.4-0.4,0.1-0.7,0.5-1
		c0.2,0.2,1-0.2,1.3,0.1c0.6-0.9,2.4-0.6,3.2-1.2c0.1,0,0.1,0,0.2,0l0-0.2c0.1,0.2,0.4,0.2,0.6,0h-0.5c0-0.3,0.2-0.1,0.3,0l0.2,0
		l-0.1,0.2c0.5,0,0.7-0.3,1.1-0.4c0.2,0.2,1,0.3,1.3,0l-0.2-0.1l0-0.2C94.9,38.1,94.8,38.1,94.7,38.1z M30.3,49.6
		c0.1-0.3,1.3-0.5,1.4-0.1C31,49.5,30.9,49.6,30.3,49.6z"/>
	<path class="st0" d="M44.8,25.9c0,0.1,0.1,0.2,0.2,0.2c0.1-0.3-0.3-0.1-0.2-0.5c-0.4-0.1-0.3,0.4-0.1,0.5
		C44.7,26.1,44.7,25.9,44.8,25.9z"/>
	<path class="st0" d="M45.8,27.4c-0.2-0.2-0.2-0.7-0.5-0.7C45.3,27,45.5,27.2,45.8,27.4z"/>
	<path class="st0" d="M98.4,37.6c-0.3,0-0.3-0.2-0.3-0.4c-0.3,0.2-0.5,0.1-0.8,0.2c-0.1,0.2,0.3,0.4,0,0.4c-0.3,0-0.3,0-0.3,0.1
		l-0.5-0.3c0,0.1-0.2,0.3-0.1,0.4c0.2,0.1,0.5,0.1,0.7,0l-0.1,0.2C97.7,38.1,98.1,38,98.4,37.6z"/>
	<path class="st0" d="M63.2,2.4c0.1-0.8,0.2-1.6,0.2-2.4L63.2,2.4z"/>
	<path class="st0" d="M86.3,5.4c0,0.4,0,0.9,0,1.3L86.3,5.4z"/>
	<path class="st0" d="M43.3,11.2l-0.2-0.3C43.2,11,43.2,11.1,43.3,11.2C43.3,11.2,43.3,11.2,43.3,11.2z"/>
	<path class="st0" d="M44.2,25l-0.4-0.7C43.8,24.6,43.9,24.9,44.2,25z"/>
	<path class="st0" d="M34.4,28c1,0.7,2,1.4,3,2L34.4,28z"/>
	<path class="st0" d="M61.7,85l-0.1-1.1C61.6,84.2,61.6,84.6,61.7,85z"/>
	<path class="st0" d="M61.5,83.9c0-0.4,0-0.7-0.1-1.1L61.5,83.9z"/>
	<path class="st0" d="M61.2,80.2l-0.1-0.7C61,79.7,61.1,79.9,61.2,80.2z"/>
	<path class="st0" d="M94.9,38.3l1,0C95.5,38.2,95.2,37.9,94.9,38.3z"/>
</g>
</svg>
